<svg width="0" height="0" class="hidden">
  <symbol xmlns="http://www.w3.org/2000/svg" viewBox="0 0 24 24" id="facebook">
    <path d="M15.997 3.985h2.191V.169C17.81.117 16.51 0 14.996 0c-3.159 0-5.323 1.987-5.323 5.639V9H6.187v4.266h3.486V24h4.274V13.267h3.345l.531-4.266h-3.877V6.062c.001-1.233.333-2.077 2.051-2.077z"></path>
  </symbol>
  <symbol xmlns="http://www.w3.org/2000/svg" viewBox="0 -47 512.002 512" id="twitter (1)">
    <path d="M191.012 419.043c-22.14 0-44.93-1.793-67.856-5.387-40.379-6.336-81.254-27.457-92.82-33.781L0 363.289l32.844-10.8c35.902-11.805 57.742-19.13 84.777-30.598-27.07-13.11-47.933-36.692-57.976-67.176l-7.641-23.195 6.266.957A113.939 113.939 0 0144 214.883c-12.934-19.645-19.781-43.649-18.324-64.219l1.437-20.246 12.121 4.695a113.316 113.316 0 01-10.98-30.777c-5.293-26.36-.863-54.363 12.476-78.852L51.29 6.102l14.12 16.96c44.66 53.649 101.227 85.473 168.363 94.79-2.742-18.903-.687-37.145 6.114-53.497 7.918-19.039 22.004-35.183 40.722-46.69 20.79-12.778 46-18.97 70.989-17.435 26.511 1.63 50.582 11.563 69.699 28.747 9.336-2.426 16.215-5.016 25.512-8.516 5.593-2.106 11.937-4.496 19.875-7.23l29.25-10.079-19.075 54.477a96.355 96.355 0 013.91-.254l31.235-1.414-18.461 25.23c-1.059 1.446-1.328 1.856-1.703 2.422-1.488 2.242-3.34 5.032-28.68 38.867-6.344 8.473-9.512 19.508-8.922 31.079 2.246 43.968-3.148 83.75-16.043 118.234-12.195 32.625-31.093 60.617-56.164 83.2-31.023 27.937-70.582 47.066-117.582 56.847-23.054 4.797-47.812 7.203-73.437 7.203zm0 0"></path>
  </symbol>
  <symbol xmlns="http://www.w3.org/2000/svg" viewBox="0 0 604.35 604.35" id="google-plus-logo">
    <path d="M516.375 255v-76.5h-51V255h-76.5v51h76.5v76.5h51V306h76.5v-51h-76.5zm-196.35 86.7l-28.051-20.4c-10.2-7.649-20.399-17.85-20.399-35.7s12.75-33.15 25.5-40.8c33.15-25.5 66.3-53.55 66.3-109.65 0-53.55-33.15-84.15-51-99.45h43.35l30.6-35.7h-158.1c-112.2 0-168.3 71.4-168.3 147.9 0 58.65 45.9 122.4 127.5 122.4h20.4c-2.55 7.65-10.2 20.4-10.2 33.15 0 25.5 10.2 35.7 22.95 51-35.7 2.55-102 10.2-150.45 40.8-45.9 28.05-58.65 66.3-58.65 94.35 0 58.65 53.55 114.75 168.3 114.75 137.7 0 204.001-76.5 204.001-150.449-.001-53.551-28.051-81.601-63.751-112.201zm-193.8-232.05c0-56.1 33.15-81.6 68.85-81.6 66.3 0 102 89.25 102 140.25 0 66.3-53.55 79.05-73.95 79.05-63.75 0-96.9-79.05-96.9-137.7zm91.799 459c-84.15 0-137.7-38.25-137.7-94.351 0-56.1 51-73.95 66.3-81.6 33.15-10.2 76.5-12.75 84.15-12.75h17.85c61.2 43.35 86.7 61.2 86.7 102 0 48.451-48.449 86.701-117.3 86.701z"></path>
  </symbol>
  <symbol xmlns="http://www.w3.org/2000/svg" viewBox="0 0 97.75 97.75" id="pinterest-social-logo">
    <path d="M48.875 0C21.883 0 0 21.882 0 48.875S21.883 97.75 48.875 97.75 97.75 75.868 97.75 48.875 75.867 0 48.875 0zm5.624 65.109c-4.521 0-8.773-2.444-10.229-5.219 0 0-2.432 9.645-2.943 11.506-1.813 6.58-7.146 13.162-7.561 13.701-.289.375-.928.258-.994-.24-.113-.838-1.475-9.139.127-15.909.801-3.4 5.383-22.814 5.383-22.814s-1.334-2.673-1.334-6.625c0-6.205 3.596-10.837 8.074-10.837 3.807 0 5.645 2.859 5.645 6.286 0 3.828-2.436 9.552-3.693 14.856-1.051 4.441 2.225 8.064 6.605 8.064 7.933 0 13.272-10.188 13.272-22.261 0-9.174-6.176-16.044-17.418-16.044-12.697 0-20.615 9.471-20.615 20.052 0 3.646 1.078 6.221 2.764 8.21.773.915.883 1.283.602 2.333-.203.771-.66 2.625-.854 3.358-.279 1.062-1.137 1.44-2.098 1.049-5.846-2.387-8.572-8.793-8.572-15.994 0-11.893 10.029-26.154 29.922-26.154 15.985 0 26.506 11.566 26.506 23.984.001 16.428-9.132 28.698-22.589 28.698z"></path>
  </symbol>

</svg>